<?xml version="1.0" standalone="no"?>
<!DOCTYPE svg PUBLIC "-//W3C//DTD SVG 20010904//EN"
 "http://www.w3.org/TR/2001/REC-SVG-20010904/DTD/svg10.dtd">
<svg version="1.0" xmlns="http://www.w3.org/2000/svg"
 width="300.000000pt" height="300.000000pt" viewBox="0 0 300.000000 300.000000"
 preserveAspectRatio="xMidYMid meet">
<metadata>
Created by potrace 1.14, written by Peter Selinger 2001-2017
</metadata>
<g transform="translate(0.000000,300.000000) scale(0.100000,-0.100000)"
fill="#000000" stroke="none">
<path d="M1285 2984 c-166 -24 -360 -88 -487 -160 -33 -19 -62 -34 -65 -34 -3
0 -32 -19 -66 -42 -363 -252 -588 -609 -652 -1037 -17 -112 -12 -371 9 -476 9
-44 18 -89 20 -100 7 -34 45 -146 74 -215 188 -456 592 -786 1092 -891 82 -17
141 -22 270 -23 91 -1 189 2 218 7 504 72 922 373 1147 827 40 80 97 231 109
292 3 12 13 59 22 103 21 100 24 395 5 505 -28 162 -74 297 -153 451 -171 334
-460 587 -821 720 -43 16 -99 34 -125 40 -26 6 -56 13 -67 15 -11 3 -33 7 -50
10 -16 2 -41 7 -55 10 -52 13 -337 11 -425 -2z"/>
</g>
</svg>
